<?xml version="1.0" encoding="utf-8"?>
<!-- Generator: Adobe Illustrator 24.2.0, SVG Export Plug-In . SVG Version: 6.00 Build 0)  -->
<svg version="1.1" id="Layer_1" xmlns="http://www.w3.org/2000/svg" xmlns:xlink="http://www.w3.org/1999/xlink" x="0px" y="0px"
	 viewBox="0 0 1366 768" style="enable-background:new 0 0 1366 768;" xml:space="preserve">
<style type="text/css">
	.st0{fill:url(#SVGID_1_);}
	.st1{fill:#04588A;}
	.st2{fill:#005689;}
</style>
<linearGradient id="SVGID_1_" gradientUnits="userSpaceOnUse" x1="24" y1="367.0338" x2="271.6812" y2="367.0338">
	<stop  offset="0" style="stop-color:#262261"/>
	<stop  offset="0.1785" style="stop-color:#252969"/>
	<stop  offset="0.4514" style="stop-color:#223D7E"/>
	<stop  offset="0.7828" style="stop-color:#1E5DA0"/>
	<stop  offset="1" style="stop-color:#1B75BB"/>
</linearGradient>
<path class="st0" d="M184.31,511.18v-4.62h87.37v-15.97H150.72v-11.06h120.96v-8.63H117.55v-11.06h154.13v-17.14h-79.91v-5.53h79.91
	v-33.39H75.01v-11.06h196.67v-38.06H111.27v-12.78h160.41v-19.86h-87.37v-6.39h87.37v-45.2H85.32v-12.78h186.36v-52.28h-67.23v-6.97
	h67.23v-79.02c0,0-241.9-9.29-247.68,256.36c0,233.66,247.68,239,247.68,239V511.18H184.31z"/>
<g>
	<rect x="314.23" y="510.65" class="st1" width="49.53" height="58.61"/>
	<polygon class="st1" points="398.43,529.87 415.52,529.87 427.59,510.65 386.36,510.65 	"/>
	<rect x="450.19" y="510.65" class="st1" width="49.53" height="58.61"/>
	<polygon class="st1" points="499.73,392.17 451.93,392.17 424.08,436.64 499.73,436.64 	"/>
	<polygon class="st1" points="362.03,392.17 314.23,392.17 314.23,436.64 390.03,436.64 	"/>
	<polygon class="st1" points="407.1,463.75 393.51,442.17 314.23,442.17 314.23,506.03 363.76,506.03 363.76,474.65 383.46,506.03 
		430.49,506.03 450.19,474.65 450.19,506.03 499.73,506.03 499.73,442.17 420.62,442.17 	"/>
	<path class="st1" d="M595.96,514.91c0-1.52-0.09-2.93-0.25-4.26H528c-0.16,1.33-0.25,2.74-0.25,4.26c0,1.64,0,2.02,0.13,2.65
		l23.83,2.14v-0.88c0-3.53,1.01-4.41,4.67-4.41h10.97c3.66,0,4.67,0.88,4.67,4.41v8.2c-1.26-1.01-3.4-1.39-6.93-1.39h-17.02
		c-14.75,0-20.3,4.92-20.3,18.03v7.44c0,13.62,6.18,19.42,20.3,19.42h12.61c8.32,0,11.98-2.02,14.38-6.43l1.76,5.17h20.17
		l-1.01-14.25V514.91z M572.01,547.82c0,3.15-0.76,3.78-4.67,3.78h-10.97c-3.91,0-4.67-0.63-4.67-3.78v-1.39
		c0-3.15,0.76-3.78,4.67-3.78h10.97c2.52,0,3.78,0.13,4.67,0.63V547.82z"/>
	<path class="st1" d="M575.67,495.49h-27.61c-10.54,0-16.65,3.24-19.08,10.54h65.76C592.32,498.73,586.21,495.49,575.67,495.49z"/>
	<path class="st1" d="M615.61,510.65l0.02,0.35v58.25h23.96v-50.44c0-3.53,1.01-4.41,4.67-4.41h11.22c3.66,0,4.67,0.88,4.67,4.41
		v50.44h23.96v-54.34c0-1.52-0.09-2.93-0.25-4.26H615.61z"/>
	<path class="st1" d="M663.8,495.49h-13.49c-7.82,0-11.6,1.77-14,5.8l-1.51-4.54h-20.17l0.66,9.28h67.59
		C680.45,498.73,674.34,495.49,663.8,495.49z"/>
	<path class="st1" d="M748.41,495.49H720.8c-10.54,0-16.65,3.24-19.08,10.54h65.76C765.06,498.73,758.95,495.49,748.41,495.49z"/>
	<path class="st1" d="M768.71,514.91c0-1.52-0.09-2.93-0.25-4.26h-67.72c-0.16,1.33-0.25,2.74-0.25,4.26c0,1.64,0,2.02,0.13,2.65
		l23.83,2.14v-0.88c0-3.53,1.01-4.41,4.67-4.41h10.97c3.66,0,4.67,0.88,4.67,4.41v8.2c-1.26-1.01-3.4-1.39-6.93-1.39H720.8
		c-14.75,0-20.3,4.92-20.3,18.03v7.44c0,13.62,6.18,19.42,20.3,19.42h12.61c8.32,0,11.98-2.02,14.38-6.43l1.76,5.17h20.17
		l-1.01-14.25V514.91z M744.75,547.82c0,3.15-0.76,3.78-4.67,3.78h-10.97c-3.91,0-4.67-0.63-4.67-3.78v-1.39
		c0-3.15,0.76-3.78,4.67-3.78h10.97c2.52,0,3.78,0.13,4.67,0.63V547.82z"/>
	<path class="st1" d="M786.74,514.91v36.19c0,13.62,6.18,19.42,20.3,19.42h13.87c5.42,0,8.95-0.88,11.35-2.77v9.08
		c0,3.53-1.01,4.41-4.67,4.41h-12.23c-3.66,0-4.67-0.88-4.67-4.41v-0.88l-23.83,2.14c-0.13,0.88-0.13,1.26-0.13,2.65
		c0,13.62,6.18,19.42,20.3,19.42h28.87c14.12,0,20.3-5.8,20.3-19.42V511l0.03-0.35h-69.25
		C786.83,511.98,786.74,513.39,786.74,514.91z M810.7,518.82c0-3.53,1.01-4.41,4.67-4.41h12.23c3.66,0,4.67,0.88,4.67,4.41v28.37
		c0,3.53-1.01,4.41-4.67,4.41h-12.23c-3.66,0-4.67-0.88-4.67-4.41V518.82z"/>
	<path class="st1" d="M835.29,501.92c-2.4-4.41-6.05-6.43-14.38-6.43h-13.87c-10.54,0-16.65,3.24-19.08,10.54h68.6l0.66-9.28h-20.17
		L835.29,501.92z"/>
	<path class="st1" d="M874.5,510.65c-0.16,1.33-0.25,2.74-0.25,4.26v36.19c0,13.62,6.18,19.42,20.3,19.42h28.24
		c14.12,0,20.3-5.8,20.3-19.42c0-1.77,0-1.89-0.13-2.65l-23.83-2.14v0.88c0,3.53-1.01,4.41-4.67,4.41h-11.6
		c-3.66,0-4.67-0.88-4.67-4.41v-6.94h44.89v-25.34c0-1.52-0.09-2.93-0.25-4.26H874.5z M919.14,523.23H898.2v-4.41
		c0-3.53,1.01-4.41,4.67-4.41h11.6c3.66,0,4.67,0.88,4.67,4.41V523.23z"/>
	<path class="st1" d="M922.79,495.49h-28.24c-10.54,0-16.65,3.24-19.07,10.54h66.39C939.44,498.73,933.33,495.49,922.79,495.49z"/>
	<path class="st1" d="M961.1,510.65l0.02,0.35v58.25h23.96v-50.44c0-3.53,1.01-4.41,4.67-4.41h7.69c3.66,0,4.67,0.88,4.67,4.41
		v50.44h23.96v-50.44c0-3.53,1.01-4.41,4.66-4.41h7.69c3.66,0,4.67,0.88,4.67,4.41v50.44h23.96v-54.34c0-1.52-0.09-2.93-0.25-4.26
		H961.1z"/>
	<path class="st1" d="M1046.74,495.49h-9.96c-8.07,0-11.85,1.89-14.25,6.05c-3.15-4.16-8.7-6.05-16.77-6.05h-9.96
		c-7.82,0-11.6,1.77-14,5.8l-1.52-4.54h-20.17l0.66,9.28h105.04C1063.39,498.73,1057.28,495.49,1046.74,495.49z"/>
	<path class="st1" d="M1131.98,495.49h-28.24c-10.54,0-16.65,3.24-19.08,10.54h66.39C1148.63,498.73,1142.52,495.49,1131.98,495.49z
		"/>
	<path class="st1" d="M1083.68,510.65c-0.16,1.33-0.25,2.74-0.25,4.26v36.19c0,13.62,6.18,19.42,20.3,19.42h28.24
		c14.12,0,20.3-5.8,20.3-19.42c0-1.77,0-1.89-0.12-2.65l-23.83-2.14v0.88c0,3.53-1.01,4.41-4.67,4.41h-11.6
		c-3.66,0-4.67-0.88-4.67-4.41v-6.94h44.89v-25.34c0-1.52-0.09-2.93-0.25-4.26H1083.68z M1128.32,523.23h-20.93v-4.41
		c0-3.53,1.01-4.41,4.67-4.41h11.6c3.66,0,4.67,0.88,4.67,4.41V523.23z"/>
	<path class="st1" d="M1218.48,495.49h-13.49c-7.82,0-11.6,1.77-14,5.8l-1.52-4.54h-20.17l0.66,9.28h67.59
		C1235.13,498.73,1229.02,495.49,1218.48,495.49z"/>
	<path class="st1" d="M1170.28,510.65l0.02,0.35v58.25h23.96v-50.44c0-3.53,1.01-4.41,4.67-4.41h11.22c3.65,0,4.66,0.88,4.66,4.41
		v50.44h23.96v-54.34c0-1.52-0.09-2.93-0.25-4.26H1170.28z"/>
	<path class="st1" d="M1250.13,515.67h13.62v35.43c0,13.62,6.18,19.42,20.3,19.42H1308V551.6h-15.64c-3.66,0-4.67-0.88-4.67-4.41
		v-31.52h20.3v-5.02h-57.87V515.67z"/>
	<polygon class="st1" points="1287.7,496.75 1287.7,483.14 1263.74,483.14 1263.74,496.75 1250.13,496.75 1250.13,506.03 
		1308,506.03 1308,496.75 	"/>
</g>
<path class="st2" d="M791.86,357.59h59.44c25.73,0,40.69-11.94,43.73-34.54H748.14C751.18,345.65,766.14,357.59,791.86,357.59z"/>
<path class="st2" d="M850.56,176.08h-57.95c-20.6,0-34.27,7.67-40.48,22.31h138.91C884.83,183.75,871.16,176.08,850.56,176.08z"/>
<path class="st2" d="M895.63,314v-26.25c0-25.51-11.39-36.66-42.35-41.11l-39.63-5.7c-14.12-1.98-15.85-2.97-15.85-9.41v-4.21
	c0-6.93,2.72-9.66,10.4-9.66h27.24c7.43,0,9.91,2.48,9.91,9.66v1.73l49.28-5.94c0.25-0.99,0.25-1.24,0.25-3.96
	c0-5.22-0.53-9.99-1.55-14.3H749.82c-1.02,4.31-1.55,9.08-1.55,14.3v26c0,25.01,11.89,36.16,42.6,40.62l39.62,5.7
	c13.13,1.98,15.6,3.22,15.6,9.41v4.95c0,7.18-2.48,9.66-9.91,9.66h-29.22c-7.43,0-9.91-2.48-9.91-9.66v-1.74l-49.28,5.95
	c-0.25,0.74-0.25,0.99-0.25,3.96c0,1.52,0.07,2.99,0.15,4.43h147.8C895.57,316.98,895.63,315.52,895.63,314z"/>
<path class="st2" d="M942.89,271.64h0.25c11.22,0,15-1.89,15-9.46v-2.14c0-7.57-3.78-9.46-15-9.46h-0.25c-11.22,0-15,1.89-15,9.46
	v2.14C927.88,269.75,931.67,271.64,942.89,271.64z"/>
<polygon class="st2" points="958.14,282.61 918.05,282.61 918.05,301.52 934.19,301.52 934.19,318.43 958.14,318.43 "/>
<polygon class="st2" points="934.19,336.19 918.05,336.19 918.05,355.11 974.28,355.11 974.28,336.19 958.14,336.19 958.14,323.05 
	934.19,323.05 "/>
<path class="st2" d="M1009.59,304.67c0-3.53,1.01-4.41,4.67-4.41h12.23c3.65,0,4.66,0.88,4.66,4.41v13.75h23.96v-61.04h-23.96v26.73
	c-2.4-1.89-5.93-2.78-11.35-2.78h-13.87c-14.12,0-20.3,5.8-20.3,19.42v17.66h23.96V304.67z"/>
<path class="st2" d="M1031.15,333.04c0,3.53-1.01,4.41-4.66,4.41h-12.23c-3.66,0-4.67-0.88-4.67-4.41v-10h-23.96v13.91
	c0,13.62,6.18,19.42,20.3,19.42h13.87c8.32,0,11.98-2.02,14.37-6.43l1.77,5.17h20.17l-1.01-14.25v-17.81h-23.96V333.04z"/>
<path class="st2" d="M1144.5,300.77c0-13.62-6.18-19.42-20.3-19.42h-28.24c-14.12,0-20.3,5.8-20.3,19.42v17.66h68.84V300.77z
	 M1120.55,309.09h-20.93v-4.41c0-3.53,1.01-4.41,4.67-4.41h11.6c3.66,0,4.67,0.88,4.67,4.41V309.09z"/>
<path class="st2" d="M1075.66,336.95c0,13.62,6.18,19.42,20.3,19.42h28.24c14.12,0,20.3-5.8,20.3-19.42c0-1.77,0-1.89-0.12-2.65
	l-23.83-2.14v0.88c0,3.53-1.01,4.41-4.67,4.41h-11.6c-3.66,0-4.67-0.88-4.67-4.41v-6.94h44.89v-3.06h-68.84V336.95z"/>
<g>
	<path class="st2" d="M313.5,356.38h98.82c22.57,0,36.83-9.21,42.05-26.72H313.5V356.38z"/>
	<path class="st2" d="M412.32,179.3H313.5v19.09h137.74C444.45,185.86,431.34,179.3,412.32,179.3z"/>
	<path class="st2" d="M456.65,312.8v-89.9c0-6.57-0.86-12.4-2.47-17.53H313.5v119.68h142C456.23,321.27,456.65,317.21,456.65,312.8z
		 M397.21,314.28h-34.18v-92.87h34.18c7.43,0,9.91,2.48,9.91,9.66v73.56C407.12,311.8,404.64,314.28,397.21,314.28z"/>
	<path class="st2" d="M482.19,330.79v7.44c0,13.62,6.18,19.42,20.3,19.42h12.61c8.32,0,11.98-2.02,14.38-6.43l1.76,5.17h20.17
		l-1.01-14.25v-12.47h-68.18C482.21,330.04,482.19,330.4,482.19,330.79z M506.15,333.56c0-3.15,0.76-3.78,4.67-3.78h10.97
		c2.52,0,3.78,0.12,4.67,0.63v4.54c0,3.15-0.76,3.78-4.67,3.78h-10.97c-3.91,0-4.67-0.63-4.67-3.78V333.56z"/>
	<path class="st2" d="M550.4,302.04c0-13.62-6.18-19.42-20.3-19.42h-27.61c-14.12,0-20.3,5.8-20.3,19.42c0,1.64,0,2.02,0.13,2.65
		l23.83,2.14v-0.88c0-3.53,1.01-4.41,4.67-4.41h10.97c3.66,0,4.67,0.88,4.67,4.41v8.2c-1.26-1.01-3.4-1.39-6.93-1.39h-17.02
		c-12.35,0-18.23,3.47-19.83,12.29h67.74V302.04z"/>
	<polygon class="st2" points="582.69,337.47 566.55,337.47 566.55,356.38 629.21,356.38 629.21,337.47 606.64,337.47 606.64,329.66 
		582.69,329.66 	"/>
	<path class="st2" d="M606.64,305.95c0-3.53,1.01-4.41,4.67-4.41h1.13c3.66,0,4.67,0.88,4.67,4.41v0.88l23.83-2.14
		c0.13-0.88,0.13-1.26,0.13-2.65c0-13.62-6.18-19.42-20.3-19.42h-3.4c-7.69,0-11.35,2.27-13.74,6.43l-1.76-5.17h-35.3v18.91h16.14
		v22.25h23.96V305.95z"/>
	<polygon class="st2" points="703.99,318.81 726.55,283.88 697.81,283.88 681.67,309.48 677,309.48 677,258.67 653.04,258.67 
		653.04,325.04 708.02,325.04 	"/>
	<polygon class="st2" points="682.72,329.66 699.7,356.38 728.32,356.38 711.01,329.66 	"/>
	<rect x="653.04" y="329.66" class="st2" width="23.96" height="26.72"/>
	<rect x="313.41" y="325.04" class="st2" width="0.09" height="4.62"/>
	<polygon class="st2" points="677,328.39 677,329.66 682.72,329.66 681.92,328.39 	"/>
</g>
</svg>
